<?xml version="1.0" encoding="UTF-8" standalone="no"?>
<svg id="Laag_1" viewBox="0 0 193.57 26.09" version="1.1" xmlns="http://www.w3.org/2000/svg">
  <defs>
    <style>.cls-1{fill:#2f343d}.cls-2{fill:#c23e3f}</style>
  </defs>
  <path class="cls-2" d="M19.41 5.3c-1.6-.4-3.24-.49-4.86-.26-1.37.19-2.32 1.46-2.12 2.83.19 1.37 1.46 2.31 2.83 2.12.98-.14 1.97-.09 2.94.16 4.1 1.03 6.6 5.21 5.57 9.31-.24.97-.66 1.86-1.24 2.65-.81 1.11-.57 2.68.55 3.49.44.32.96.48 1.47.48.77 0 1.53-.36 2.02-1.03.96-1.32 1.65-2.79 2.05-4.38.82-3.28.32-6.69-1.42-9.6-1.74-2.9-4.5-4.96-7.79-5.78"/>
  <path class="cls-2" d="M13.48 15.88c-.89.1-1.79.03-2.67-.19-4.1-1.03-6.6-5.21-5.57-9.31.22-.89.6-1.72 1.11-2.47.78-1.14.49-2.69-.65-3.48C4.56-.34 3-.05 2.22 1.08 1.37 2.32.75 3.7.38 5.17c-1.7 6.78 2.43 13.67 9.2 15.38 1.02.26 2.05.38 3.09.38.44 0 .89-.02 1.33-.07 1.37-.15 2.37-1.38 2.22-2.75-.15-1.37-1.36-2.36-2.75-2.22"/>
  <path class="cls-1" d="M54.97 11.22c-2.13-.08-3.63-.57-4.11-1.35-.34-.56-.16-1.31 0-1.62.61-1.31 2.47-1.89 4.05-1.89 1.66 0 3.18.77 4.17 2.11.65.89 1.9 1.08 2.79.43.89-.65 1.08-1.91.43-2.8-1.72-2.34-4.48-3.74-7.39-3.74-3.53 0-6.48 1.61-7.68 4.21-.64 1.38-.92 3.53.23 5.4 1.24 2.03 3.72 3.13 7.37 3.26 2.14.08 3.64.57 4.12 1.35.34.56.15 1.31 0 1.63-.61 1.31-2.47 1.89-4.05 1.89-1.66 0-3.18-.77-4.17-2.11-.66-.89-1.91-1.08-2.8-.43-.89.65-1.08 1.9-.43 2.8 1.72 2.35 4.48 3.74 7.39 3.74 3.53 0 6.48-1.61 7.68-4.21.64-1.39.92-3.54-.22-5.4-1.24-2.03-3.73-3.12-7.38-3.25"/>
  <path class="cls-1" d="M75.96 20.11c-2.85 0-5.16-2.32-5.16-5.16v-3.43c0-2.85 2.32-5.16 5.16-5.16s5.16 2.32 5.16 5.16v3.43c0 2.85-2.32 5.16-5.16 5.16M75.96 2.35c-5.05 0-9.16 4.11-9.16 9.16v3.43c0 5.05 4.11 9.16 9.16 9.16 1.93 0 3.72-.6 5.2-1.63.17.93.99 1.63 1.96 1.63 1.11 0 2-.9 2-2v-10.6c0-5.05-4.11-9.16-9.16-9.16"/>
  <path class="cls-1" d="M98.1 2.35c-5.05 0-9.16 4.11-9.16 9.16v10.6c0 1.11.89 2 2 2s2-.89 2-2v-10.6c0-2.85 2.32-5.16 5.16-5.16s5.16 2.32 5.16 5.16v10.6c0 1.1.9 2 2 2s2-.9 2-2v-10.6c0-5.05-4.11-9.16-9.16-9.16"/>
  <path class="cls-1" d="M120.24 20.11c-2.85 0-5.16-2.32-5.16-5.16v-3.43c0-2.85 2.32-5.16 5.16-5.16s5.16 2.32 5.16 5.16v3.43c0 2.85-2.32 5.16-5.16 5.16M120.24 2.35c-5.05 0-9.16 4.11-9.16 9.16v3.43c0 5.05 4.11 9.16 9.16 9.16 1.93 0 3.72-.6 5.2-1.63.17.93.99 1.63 1.96 1.63 1.1 0 2-.9 2-2v-10.6c0-5.05-4.11-9.16-9.16-9.16"/>
  <path class="cls-1" d="M142.37 6.35c1.66 0 3.18.77 4.16 2.11.65.89 1.9 1.08 2.8.43.89-.65 1.08-1.91.43-2.8-1.72-2.35-4.49-3.74-7.39-3.74-5.05 0-9.16 4.11-9.16 9.16v3.44c0 5.05 4.11 9.16 9.16 9.16 2.89 0 5.65-1.39 7.37-3.72.66-.89.47-2.14-.42-2.8-.89-.66-2.14-.47-2.8.42-.99 1.33-2.5 2.1-4.15 2.1-2.85 0-5.16-2.32-5.16-5.16v-3.44c0-2.85 2.32-5.16 5.16-5.16"/>
  <path class="cls-1" d="M162.25 2.35c-5.05 0-9.16 4.11-9.16 9.16v3.43c0 5.05 4.11 9.16 9.16 9.16s9.16-4.11 9.16-9.16v-3.43c0-5.05-4.11-9.16-9.16-9.16m5.16 12.6c0 2.85-2.32 5.16-5.16 5.16s-5.16-2.32-5.16-5.16v-3.43c0-2.85 2.32-5.16 5.16-5.16s5.16 2.32 5.16 5.16z"/>
  <path class="cls-1" d="M184.4 2.35c-5.05 0-9.16 4.11-9.16 9.16v10.6c0 1.1.9 2 2 2s2-.9 2-2v-10.6c0-2.85 2.32-5.16 5.16-5.16s5.16 2.32 5.16 5.16v10.6c0 1.1.9 2 2 2s2-.9 2-2v-10.6c0-5.05-4.11-9.16-9.16-9.16"/>
</svg>
